<svg xmlns="http://www.w3.org/2000/svg" viewBox="0 0 180 180" role="img" aria-label="brain line illustration">
  <g fill="none" stroke="#171717" stroke-width="7" stroke-linecap="round" stroke-linejoin="round">
    <path d="M67 45c-16 0-27 13-27 29 0 7 3 14 8 19-8 5-13 14-13 25 0 16 13 29 29 29h52c16 0 29-13 29-29 0-10-5-19-13-24 5-6 8-13 8-21 0-17-14-31-31-31-8 0-16 3-21 9-5-4-12-6-21-6z"/>
    <path d="M70 65c-6 8-5 18 3 25M103 62c8 8 9 21 1 30M74 118c12-10 28-10 40 0M90 50v84"/>
  </g>
</svg>
